<?xml version="1.0" encoding="UTF-8" standalone="no"?>
<svg width="908px" height="304px" viewBox="0 0 908 304" version="1.1" xmlns="http://www.w3.org/2000/svg" xmlns:xlink="http://www.w3.org/1999/xlink" xmlns:sketch="http://www.bohemiancoding.com/sketch/ns">
    <!-- Generator: Sketch 3.5.1 (25234) - http://www.bohemiancoding.com/sketch -->
    <title>Page 1</title>
    <desc>Created with Sketch.</desc>
    <defs>
        <path id="path-1" d="M0,0.6 L907.1,0.6 L907.1,304 L0,304"></path>
    </defs>
    <g id="Page-1" stroke="none" stroke-width="1" fill="none" fill-rule="evenodd" sketch:type="MSPage">
        <g sketch:type="MSLayerGroup">
            <path d="M146,0.6 C65.3,0.6 0,66 0,146.6 C0,227.3 65.4,292.6 146,292.6 C206.3,292.6 258.1,256 280.3,203.9 C263.8,212 245.9,219.1 231.7,219.1 C214.6,219.1 204.7,208.8 203.7,190 C203,176.5 212.3,160.7 219.2,149.1 C219.7,148.2 220.3,147.3 220.8,146.4 C210.9,152.7 201.1,163.4 192.3,173.1 C179.4,187.2 168.3,199.4 156.6,199.4 C153.5,199.4 150.6,198.5 147.9,196.9 C133.8,187.2 140.4,169.8 144.8,158.2 C145.9,155.2 147.6,150.9 148,148.4 C141.1,149.8 128.8,160.4 123.3,165.2 L122.6,165.8 C117.3,170.4 111.9,176.3 106.6,182 C103.2,185.7 100,189.2 96.8,192.3 C95.6,193.5 94.2,195 92.6,196.7 C84.3,205.6 73,217.7 61.2,217.7 C60.3,217.7 59.4,217.6 58.5,217.5 C50.5,216.2 46.8,211.5 45.1,207.8 C39.2,195.2 46.6,171.3 67,136.9 C83.5,109.2 93.2,95.2 108.9,76.8 L109.9,75.8 C111.9,74.3 114.5,73.6 117.3,73.6 C122.5,73.6 127.7,76 130.2,79.7 C132,82.2 132.4,85.2 131.5,88 L131.2,88.6 C126.3,98.4 119.6,107.5 113.2,116.2 C107.9,123.4 102.9,130.2 98.8,137.3 L94.8,144.1 C90.5,151.6 82.1,166 77.3,176.1 C79.5,174 81.7,171.9 83.3,170.2 C85.6,167.9 87.8,165.8 89.6,164 C96.8,157.3 106.2,148.8 114.3,141.6 C126.7,130.7 145.5,114.3 161.6,114.3 C167.4,114.3 172.3,116.3 176.2,120.3 C183,127.7 179.7,136.7 176.8,144.6 C175.1,149.1 173.4,153.6 173,158.4 C176.6,155.3 181.5,150.3 185.2,146.6 C190.7,141 196.3,135.3 201.3,131.3 C214.6,120.7 233.5,109.5 246.9,109.5 C255.3,109.5 259.6,113.6 261.7,117.1 C266.7,125.4 259.9,135.5 251.2,148.4 C242.4,161.3 231.6,177.5 232.5,192.5 C232.5,192.8 232.6,193 232.6,193.1 C232.6,193.1 233.1,193.6 235.6,193.6 C243.3,193.6 257.9,188.4 275.9,179.2 C280.7,176.8 285.3,174.3 289.9,171.7 C291.3,163.5 292.1,155 292.1,146.4 C292,66 226.6,0.6 146,0.6" id="Fill-1" fill="#fff" sketch:type="MSShapeGroup"></path>
            <path d="M408.8,98.7 C423.8,98.7 429.8,101.4 434.7,102.8 C437.6,103.6 445.4,79.2 443.3,77.4 C440.4,74.7 430.8,69.2 405.3,69.2 C350.4,69.2 336.5,94.2 336.5,124.1 L336.5,174.9 C336.5,203.2 355.4,224 398.3,224 C421.5,224 438.2,219.3 442.1,216.4 C444.4,214.3 437.8,188.4 434.5,189.2 C429.6,190.6 420.1,195.6 401.6,195.6 C385.2,195.6 375.9,187.8 375.9,169.6 L375.9,127.6 C375.9,104.4 389.9,98.7 408.8,98.7" id="Fill-3" fill="#fff" sketch:type="MSShapeGroup"></path>
            <path d="M504.6,169.1 L520.4,115.7 L536.2,169.1 L504.6,169.1 Z M548.1,78 C546.5,73.1 545,71.5 538.9,71.5 L509.1,71.5 C503.1,71.5 501.5,73.1 500.1,78 L458.4,214.6 C456.6,220.1 458.2,221.4 461.3,221.4 L484.1,221.4 C488.4,221.4 489.2,220.2 490.5,216.1 L497.1,194 L543.8,194 L550.6,216.1 C551.8,220.2 552,221.4 557,221.4 L583.3,221.4 C589.1,221.4 591.9,221.2 589.9,214.6 L548.1,78 Z" id="Fill-5" fill="#fff" sketch:type="MSShapeGroup"></path>
            <path d="M670.2,127.4 C656.9,121.9 649.7,117.4 649.7,110.2 C649.7,102.6 655.5,98.5 670.7,98.5 C679.3,98.5 693.1,101.4 699.9,103 C705.6,104.4 711.4,75.4 706.7,73.7 C703.8,72.7 695,69.2 667.9,69.2 C632.1,69.2 609.7,84.6 609.7,111.8 C609.7,141.3 633.5,151.7 653.1,159.7 C667.5,165.4 674.1,170.6 674.1,178.5 C674.1,188.5 663.8,192 648.6,192 C627,192 616.8,186.7 611,185.9 C607.1,185.5 605.4,213.7 607.7,215.6 C612.6,219.7 628.5,224.2 655,224.2 C682.1,224.2 716,217 716,178.9 C715.8,151.5 692.6,137 670.2,127.4" id="Fill-7" fill="#fff" sketch:type="MSShapeGroup"></path>
            <path d="M857.3,71.5 L832.2,71.5 C827.1,71.5 824.8,72.9 824.8,76.8 L824.8,125.5 C824.8,128 823.8,129 821.3,129 L784.3,129 C781,129 779.6,128.4 779.6,125.1 L779.6,78.2 C779.6,72.9 777.3,71.4 771.4,71.4 L746.8,71.4 C742.1,71.4 740.8,72.8 740.8,76.7 L740.8,214.1 C740.8,219.2 741.6,221.3 746.1,221.3 L771,221.3 C777.2,221.3 779.6,220.1 779.6,214.7 L779.6,161.4 C779.6,158.1 780.4,157.9 782.9,157.9 L820.9,157.9 C824.2,157.9 824.8,158.7 824.8,162 L824.8,214.8 C824.8,219.3 826.6,221.4 831.6,221.4 L857.1,221.4 C862.9,221.4 863.7,220.2 863.7,214.8 L863.7,77.4 C863.7,73.1 863.3,71.5 857.3,71.5" id="Fill-9" fill="#fff" sketch:type="MSShapeGroup"></path>
            <path d="M893.6,84.8 L891.6,84.8 C891.3,84.8 891.2,84.8 891.2,84.4 L891.2,81.2 C891.2,81 891.2,80.8 891.6,80.8 L893.2,80.8 C894.6,80.8 895.5,81.5 895.5,82.8 C895.4,84.2 894.6,84.8 893.6,84.8 L893.6,84.8 Z M896,86.9 C895.9,86.7 896,86.7 896.2,86.6 C897,86.3 898.8,85.1 898.8,82.8 C898.8,80.2 897,78.3 893.4,78.3 L888.5,78.3 C888,78.3 887.9,78.4 887.9,78.8 L887.9,92.1 C887.9,92.6 887.9,92.9 888.3,92.9 L890.5,92.9 C890.9,92.9 891.1,92.8 891.1,92.3 L891.1,87.7 C891.1,87.4 891.1,87.3 891.3,87.3 L892.5,87.3 C892.7,87.3 892.7,87.3 892.8,87.5 L895.6,92.4 C895.8,92.7 895.8,93 896.2,93 L898.8,93 C899.3,93 899.3,92.8 899,92.3 L896,86.9 Z" id="Fill-11" fill="#fff" sketch:type="MSShapeGroup"></path>
            <g id="Group-15">
                <mask id="mask-2" sketch:name="Clip 14" fill="white">
                    <use xlink:href="#path-1"></use>
                </mask>
                <g id="Clip-14"></g>
                <path d="M892.9,97.8 C886.4,97.8 881.1,92.5 881.1,85.8 C881.1,79 886.4,73.8 892.9,73.8 C899.4,73.8 904.6,79 904.6,85.8 C904.7,92.5 899.4,97.8 892.9,97.8 M892.9,71.5 C885,71.5 878.7,77.8 878.7,85.8 C878.7,93.8 885,100.1 892.9,100.1 C900.8,100.1 907.1,93.8 907.1,85.8 C907.1,77.8 900.8,71.5 892.9,71.5" id="Fill-13" fill="#fff" sketch:type="MSShapeGroup" mask="url(#mask-2)"></path>
            </g>
        </g>
    </g>
</svg>